<svg width="208" height="39" viewBox="0 0 208 39" fill="none" xmlns="http://www.w3.org/2000/svg">
<path fill-rule="evenodd" clip-rule="evenodd" d="M13.4748 0.377159C11.373 0.871968 8.21723 2.44235 6.55754 3.81915C3.6849 6.20182 2.05578 11.793 3.10435 15.6706C4.16452 19.5915 7.11645 21.8874 13.9784 24.1269C19.3357 25.8753 19.3933 25.9001 19.3933 26.4534C19.3933 27.8232 15.2849 28.2286 11.4732 27.2347C7.9577 26.3183 6.05666 25.3379 3.92858 23.3455C2.85487 22.3401 1.91034 21.5874 1.83028 21.673C1.74983 21.7581 1.24005 24.6128 0.697389 28.0164C-0.453678 35.2322 -0.594854 34.8021 3.55572 36.717C9.77868 39.5883 18.2984 39.7711 23.8413 37.1526C28.8749 34.7746 31.4026 31.2648 31.6927 26.2497C31.8849 22.9208 31.4103 20.9613 29.9305 18.9794C28.316 16.8166 24.6478 14.7479 19.6892 13.2031C16.9698 12.356 15.2907 11.6482 15.5011 11.4376C15.6945 11.244 17.4761 11.1681 19.4603 11.2684C23.4209 11.4686 26.2696 12.3556 29.1217 14.2767C30.0465 14.8997 30.8468 15.2857 30.9001 15.1343C30.9531 14.983 31.4153 12.3327 31.9267 9.24502C32.7888 4.041 32.8101 3.59265 32.2168 3.10868C31.1984 2.27703 28.299 1.10814 25.7787 0.513056C23.2101 -0.0936472 15.8187 -0.17534 13.4748 0.377159ZM114.155 0.544418C108.504 2.09312 103.193 6.2084 100.92 10.7995C97.6698 17.3649 97.9347 25.8153 101.559 31.1781C105.566 37.1061 113.714 40.1021 121.607 38.5499C123.425 38.1922 125.676 37.5719 126.609 37.172L128.304 36.4445L129.33 29.9209C129.894 26.333 130.31 23.3514 130.254 23.2948C130.197 23.2387 129.555 23.6398 128.825 24.1865C128.096 24.7332 126.629 25.645 125.565 26.213C123.802 27.1546 123.249 27.246 119.31 27.2471C115.547 27.2487 114.85 27.1453 113.919 26.4503C111.375 24.5516 110.428 21.8991 111.068 18.4695C111.604 15.6024 113.13 13.5423 115.705 12.2131C117.693 11.1867 118.061 11.1271 121.423 11.2889C124.575 11.4407 125.358 11.6316 127.799 12.8442C129.329 13.6046 130.605 14.1947 130.635 14.1556C130.963 13.7254 132.579 2.773 132.35 2.53488C132.179 2.35795 130.844 1.76402 129.383 1.21462C127.106 0.359348 125.977 0.197897 121.504 0.0887135C117.714 -0.0038213 115.699 0.121236 114.155 0.544418ZM175.364 0.550999C171.208 1.67148 167.857 4.05958 166.354 6.97191C165.343 8.9314 164.821 12.5658 165.233 14.7719C166.119 19.5199 168.719 21.6323 177.008 24.3367C181.433 25.7805 182.203 26.2738 181.258 27.0586C180.297 27.8573 176.898 27.9653 174.007 27.2889C170.706 26.5169 167.929 25.1149 165.788 23.1396C163.8 21.3047 164.041 20.8487 162.845 28.7033C161.85 35.2481 161.653 34.6553 165.455 36.5602C171.453 39.5655 180.773 39.7854 186.437 37.0554C193.912 33.4528 196.582 24.0487 191.68 18.591C189.616 16.2924 185.921 14.2857 181.271 12.9367C179.378 12.3873 177.749 11.8588 177.653 11.762C176.765 10.8735 184.048 11.1426 187.131 12.1124C188.231 12.4586 190.023 13.3425 191.113 14.0766C192.386 14.9346 193.144 15.2435 193.233 14.9415C193.425 14.288 195.009 4.11572 195 3.58723C194.99 2.98788 191.014 1.26108 188.014 0.553322C184.891 -0.183472 178.093 -0.184633 175.364 0.550999ZM37.4213 1.37104C37.0496 3.1714 31.7704 37.1441 31.7704 37.7368C31.7704 38.1833 32.8565 38.2832 37.7172 38.2832H43.6644L44.5196 32.7659C44.9903 29.7312 45.4598 26.8816 45.5631 26.4325C45.7379 25.6732 46.0775 25.6012 50.4609 25.3976C55.9034 25.1444 58.8046 24.3088 61.4765 22.2255C64.9189 19.5408 66.6107 16.2231 66.7136 11.9552C66.7991 8.41104 65.877 6.25564 63.2449 3.8478C59.9828 0.863064 58.8793 0.625725 47.3767 0.43446L37.6484 0.272621L37.4213 1.37104ZM68.0314 19.0498C62.1283 29.3417 57.2981 37.8793 57.2981 38.0226C57.2981 38.1658 60.2137 38.2797 63.7767 38.2754L70.2554 38.2681L72.1893 34.694L74.1232 31.1204L79.5563 31.0136L84.9895 30.9067L85.8775 34.5949L86.766 38.2832H93.052H99.3376L97.6578 31.798C96.7334 28.2309 94.5295 19.7375 92.7592 12.9232L89.5412 0.533577L84.1529 0.435622L78.7646 0.337279L68.0314 19.0498ZM136.021 1.21113C135.655 2.83688 130.4 36.8084 130.4 37.5479C130.4 38.2572 130.922 38.2832 145.245 38.2832H160.09L160.753 33.9274C161.118 31.532 161.508 29.0928 161.621 28.507L161.826 27.4422H152.865H143.902L144.144 25.9903C144.276 25.192 144.451 24.3247 144.532 24.0634C144.64 23.7168 146.541 23.56 151.56 23.4826L158.439 23.3769L159.243 18.2468L160.046 13.1168H153.152C146.538 13.1168 146.258 13.0858 146.258 12.3498C146.258 11.6107 146.579 11.5789 155.058 11.4786L163.857 11.3745L164.701 6.3412C165.165 3.5729 165.557 1.09033 165.572 0.823958C165.592 0.444914 162.415 0.33999 150.907 0.33999H136.217L136.021 1.21113ZM14.2607 2.25728C9.137 3.89658 6.3715 6.9905 5.96345 11.5402C5.7132 14.3302 6.36068 16.6552 7.86604 18.3715C9.38494 20.103 11.1216 20.988 16.6479 22.8476C19.0739 23.6638 21.3799 24.6228 21.7728 24.979C23.3374 26.3961 22.025 28.6893 19.3933 29.1381C18.6488 29.2651 18.3007 29.2616 18.6198 29.1307C19.7461 28.668 20.9405 27.2971 20.9405 26.467C20.9405 25.1324 19.8114 24.4327 15.1008 22.8476C9.57445 20.988 7.8378 20.103 6.3189 18.3715C4.78337 16.6207 4.1591 14.3104 4.45383 11.4666C4.81161 8.00838 6.34288 5.59899 9.42593 3.64143C10.6621 2.85702 14.6019 1.54333 15.7189 1.54333C16.1444 1.54333 15.4884 1.8643 14.2607 2.25728ZM115.509 2.22437C108.811 4.15057 103.731 9.45796 102.165 16.1631C101.391 19.4773 101.819 25.2601 103.035 27.9196C104.823 31.8282 108.217 34.797 112.796 36.4568C114.7 37.1464 114.707 37.1549 113.188 36.9234C109.296 36.3302 104.39 33.0098 102.418 29.6352C99.6219 24.8501 99.4734 17.548 102.059 12.0199C103.315 9.336 106.98 5.43676 109.584 4.01506C111.687 2.86669 115.669 1.55649 117.056 1.55649C117.482 1.55649 116.785 1.85694 115.509 2.22437ZM177.201 2.0544C173.585 3.05873 171.004 4.7836 169.646 7.102C167.608 10.5831 167.734 15.3442 169.94 18.2395C171.128 19.7983 174.59 21.5541 179.331 23.0013C183.212 24.1865 184.408 24.8354 184.76 25.947C185.121 27.0849 183.973 28.5128 182.329 28.9697C180.211 29.5585 179.919 29.4687 181.451 28.6998C182.259 28.2952 182.955 27.5781 183.185 26.9157C183.524 25.9369 183.442 25.7081 182.476 24.9368C181.875 24.4571 179.79 23.5926 177.842 23.0153C172.711 21.4952 169.514 19.7812 168.118 17.8016C167.143 16.4198 166.942 15.7228 166.82 13.3181C166.658 10.0987 167.093 8.41724 168.645 6.275C170.218 4.10178 175.342 1.57082 178.168 1.57082C178.593 1.57082 178.158 1.78841 177.201 2.0544ZM40.2649 2.56625C40.2356 3.93414 35.0028 36.338 34.7746 36.5664C34.6446 36.6965 34.2957 36.7441 33.9991 36.6717C33.5608 36.5656 33.9557 33.3726 36.0981 19.6987C37.5497 10.4356 38.8176 2.63904 38.9158 2.37266C39.1878 1.63741 40.2816 1.79461 40.2649 2.56625ZM73.1767 15.9238C68.7427 23.6433 64.2614 31.4398 63.2186 33.2499C61.8579 35.6113 61.0801 36.5761 60.4655 36.6651C59.7074 36.7755 59.9143 36.2617 62.2613 32.2126C63.7203 29.6956 68.0062 22.2347 71.7855 15.6334C80.198 0.938174 79.5958 1.88869 80.4939 1.88869C81.0942 1.88869 79.6762 4.60859 73.1767 15.9238ZM138.909 2.21237C138.909 2.65956 133.934 34.351 133.657 35.6697C133.506 36.3883 133.189 36.7344 132.683 36.7344C132.104 36.7344 131.977 36.5347 132.129 35.8633C132.237 35.384 133.464 27.6924 134.856 18.7699C136.249 9.84785 137.479 2.39976 137.591 2.21818C137.854 1.79306 138.909 1.78841 138.909 2.21237ZM23.3579 9.8885C23.0921 9.99614 22.657 9.99614 22.3909 9.8885C22.1252 9.78126 22.3426 9.69336 22.8744 9.69336C23.4062 9.69336 23.624 9.78126 23.3579 9.8885ZM56.6657 10.4348C58.1181 11.5781 58.0701 13.5651 56.5543 15.0825C55.9324 15.705 55.1635 16.2142 54.8455 16.2142C54.5272 16.2142 53.9482 16.3199 53.5587 16.4488C53.1688 16.5781 53.4048 16.3261 54.0824 15.8889C56.3992 14.3948 56.887 11.8271 55.1186 10.4348C54.2035 9.71427 54.1783 9.63219 54.873 9.63219C55.2984 9.63219 56.1053 9.99343 56.6657 10.4348ZM125.267 9.86604C125.139 9.99459 124.805 10.0085 124.526 9.89663C124.217 9.77312 124.309 9.68136 124.76 9.66278C125.167 9.64613 125.396 9.7375 125.267 9.86604ZM188.28 10.4487C191.5 11.4399 192.377 11.8805 192.083 12.3575C191.954 12.565 191.456 12.4574 190.92 12.1059C190.404 11.7675 188.716 11.0802 187.17 10.5784C185.622 10.0771 184.643 9.65891 184.993 9.64961C185.342 9.63993 186.822 9.99962 188.28 10.4487ZM28.1927 11.1983C29.097 11.5905 29.8365 12.0993 29.8365 12.3285C29.8365 12.5608 29.1178 12.3784 28.2139 11.9165C27.3212 11.4608 25.9725 10.8479 25.2164 10.5548L23.8413 10.0217L25.1951 10.2532C25.9396 10.3806 27.2884 10.8061 28.1927 11.1983ZM128.382 10.6435C129.173 10.9865 129.632 11.3396 129.402 11.4283C129.172 11.5166 128.215 11.2397 127.275 10.8127C126.335 10.3856 125.876 10.0325 126.255 10.0279C126.634 10.0232 127.591 10.3001 128.382 10.6435ZM54.451 11.7624C54.5736 12.0822 54.5666 12.773 54.4351 13.2968C54.1369 14.4862 52.1086 15.1622 49.3691 14.9845C47.5628 14.8672 47.4425 14.7952 47.5438 13.8911C47.8571 11.1 47.75 11.1809 51.1289 11.1809C53.5289 11.1809 54.2785 11.3121 54.451 11.7624ZM84.9516 17.5975C85.524 20.0619 85.8965 22.1743 85.7797 22.2917C85.0908 22.9808 84.3753 21.731 83.6477 18.5674C83.0037 15.767 82.9295 14.861 83.2818 14.087C83.5247 13.5535 83.7657 13.1168 83.8171 13.1168C83.8686 13.1168 84.3791 15.1332 84.9516 17.5975ZM82.0523 18.1016C82.0523 18.2879 82.1609 18.9848 82.294 19.6503C82.5234 20.7991 82.4746 20.8603 81.327 20.8603C79.9153 20.8603 79.9276 20.8994 80.7701 19.1311C81.3758 17.86 82.0523 17.3168 82.0523 18.1016ZM3.68993 28.7071C2.83514 33.4864 2.90554 33.8845 4.771 34.8373C5.66369 35.293 7.01241 35.9094 7.76857 36.2075L9.14358 36.7492L7.78984 36.5389C7.04528 36.4232 5.34846 35.8196 4.0187 35.197C1.24546 33.8984 1.31161 34.1291 2.1869 28.7974C2.50135 26.8808 2.75933 25.1552 2.76011 24.9624C2.76088 24.7696 3.08307 24.9032 3.47604 25.2594C4.13899 25.8595 4.15446 26.1104 3.68993 28.7071ZM166.181 25.5114C166.314 25.7271 166.143 27.6656 165.801 29.8191C165.459 31.9726 165.23 33.7617 165.292 33.7954C165.353 33.8287 165.704 34.0858 166.071 34.3665C166.438 34.6472 167.743 35.3031 168.972 35.8238C170.732 36.5695 170.918 36.7201 169.852 36.5331C169.108 36.4026 167.393 35.765 166.041 35.1164C163.779 34.0304 163.601 33.8543 163.792 32.8999C163.905 32.3296 164.211 30.3457 164.47 28.4911C164.784 26.2405 165.107 25.1192 165.44 25.1192C165.714 25.1192 166.048 25.2957 166.181 25.5114ZM128.079 27.0748C128.079 27.5998 125.996 28.4675 124.018 28.7668L122.471 29.001L124.018 28.4818C124.869 28.1961 126.088 27.678 126.726 27.3307C128.133 26.5641 128.079 26.5746 128.079 27.0748ZM88.4032 32.1851C88.7479 33.7292 89.1339 35.384 89.2607 35.8633C89.4441 36.556 89.3307 36.7344 88.7072 36.7344C88.0369 36.7344 87.8064 36.2257 87.1152 33.2204C86.1429 28.9944 86.1502 29.3781 87.0418 29.3781C87.6382 29.3781 87.8942 29.9058 88.4032 32.1851ZM10.3925 36.9683C10.2641 37.0968 9.9303 37.1108 9.65143 36.9989C9.34278 36.8754 9.43444 36.7836 9.88505 36.765C10.2927 36.7484 10.5209 36.8398 10.3925 36.9683ZM172.656 36.9908C172.391 37.0984 171.955 37.0984 171.689 36.9908C171.424 36.8835 171.641 36.7956 172.173 36.7956C172.705 36.7956 172.922 36.8835 172.656 36.9908Z" fill="#918FF8"/>
<path d="M200 32C200 31.4477 200.448 31 201 31H207C207.552 31 208 31.4477 208 32V38C208 38.5523 207.552 39 207 39H201C200.448 39 200 38.5523 200 38V32Z" fill="#6FE6A9"/>
<mask id="path-3-inside-1_20_129" fill="white">
<path d="M207 37V32L206.43 36.617C206.373 37.0762 206.009 37.4365 205.549 37.4882L201 38H206C206.552 38 207 37.5523 207 37Z"/>
</mask>
<path d="M207 37V32L206.43 36.617C206.373 37.0762 206.009 37.4365 205.549 37.4882L201 38H206C206.552 38 207 37.5523 207 37Z" fill="#6FE6A9"/>
<path d="M207 32H208L206.008 31.8775L207 32ZM201 38L200.888 37.0063L201 39V38ZM205.549 37.4882L205.661 38.4819L205.549 37.4882ZM206.43 36.617L207.422 36.7395L206.43 36.617ZM206 32V37H208V32H206ZM206 37H201V39H206V37ZM201.112 38.9937L205.661 38.4819L205.438 36.4945L200.888 37.0063L201.112 38.9937ZM207.422 36.7395L207.992 32.1225L206.008 31.8775L205.438 36.4945L207.422 36.7395ZM205.661 38.4819C206.581 38.3785 207.309 37.6578 207.422 36.7395L205.438 36.4945H205.438L205.661 38.4819ZM206 37V39C207.105 39 208 38.1046 208 37H206Z" fill="black" mask="url(#path-3-inside-1_20_129)"/>
</svg>
